<svg xmlns="http://www.w3.org/2000/svg" width="1600" height="1600" viewBox="0 0 1600 1600" role="img" aria-label="Quantitative Wirtschaftlichkeit ohne Schrift">
<defs>
<linearGradient id="g" x1="0" y1="0" x2="1" y2="1"><stop stop-color="#00FFFF"/><stop offset="1" stop-color="#7FFFD4"/></linearGradient>
<linearGradient id="d" x1="0" y1="0" x2="0" y2="1"><stop stop-color="#045f5f"/><stop offset="1" stop-color="#033c3c"/></linearGradient>
<pattern id="dots" width="48" height="48" patternUnits="userSpaceOnUse"><circle cx="6" cy="6" r="3" fill="#7FFFD4" opacity=".25"/></pattern>
<style>.bg{fill:#f5f7f4}.a{fill:url(#g);stroke:#045f5f;stroke-width:8;stroke-linejoin:round}.b{fill:#eafff9;stroke:#045f5f;stroke-width:7;stroke-linejoin:round}.c{fill:#7FFFD4;stroke:#045f5f;stroke-width:7}.s{fill:#045f5f;opacity:.18}.line{stroke:#045f5f;stroke-width:10;stroke-linecap:round;fill:none}.thin{stroke:#045f5f;stroke-width:6;stroke-linecap:round;fill:none;opacity:.8}</style>
</defs><rect class="bg" width="1600" height="1600"/><rect width="1600" height="1600" fill="url(#dots)"/><ellipse class="s" cx="800" cy="1370" rx="560" ry="90"/><path class="b" d="M280 980 L800 700 L1320 980 L800 1260 Z"/><path class="a" d="M430 945 L800 750 L1170 945 L800 1140 Z"/><g><circle class="b" cx="800" cy="360" r="155"/><path class="line" d="M725 360h150M800 285v150"/><circle class="c" cx="1030" cy="470" r="70"/><circle class="c" cx="570" cy="470" r="70"/></g><g><path class="line" d="M800 520v180"/><path class="line" d="M610 820c-100-110-120-230-40-350"/><path class="line" d="M990 820c100-110 120-230 40-350"/></g><g><rect class="b" x="245" y="1010" width="210" height="145" rx="28"/><rect class="b" x="1145" y="1010" width="210" height="145" rx="28"/><rect class="b" x="580" y="1110" width="440" height="145" rx="28"/></g><g><circle class="a" cx="350" cy="1082" r="32"/><circle class="a" cx="1250" cy="1082" r="32"/><path class="thin" d="M640 1182h320M690 1150h220"/></g><g><path class="thin" d="M500 960c90-95 220-145 300-145s210 50 300 145"/><path class="thin" d="M500 1025c90 95 220 145 300 145s210-50 300-145"/></g><g><rect class="c" x="300" y="650" width="120" height="220" rx="24"/><rect class="c" x="1180" y="650" width="120" height="220" rx="24"/><rect class="c" x="510" y="590" width="120" height="280" rx="24"/><rect class="c" x="970" y="590" width="120" height="280" rx="24"/></g></svg>