<svg xmlns="http://www.w3.org/2000/svg" width="1600" height="1600" viewBox="0 0 1600 1600" role="img" aria-label="Qualitative Wirksamkeit ohne Schrift">
<defs>
<linearGradient id="g" x1="0" y1="0" x2="1" y2="1"><stop stop-color="#00FFFF"/><stop offset="1" stop-color="#7FFFD4"/></linearGradient>
<linearGradient id="d" x1="0" y1="0" x2="0" y2="1"><stop stop-color="#045f5f"/><stop offset="1" stop-color="#033c3c"/></linearGradient>
<pattern id="dots" width="48" height="48" patternUnits="userSpaceOnUse"><circle cx="6" cy="6" r="3" fill="#7FFFD4" opacity=".25"/></pattern>
<style>.bg{fill:#f5f7f4}.a{fill:url(#g);stroke:#045f5f;stroke-width:8;stroke-linejoin:round}.b{fill:#eafff9;stroke:#045f5f;stroke-width:7;stroke-linejoin:round}.c{fill:#7FFFD4;stroke:#045f5f;stroke-width:7}.s{fill:#045f5f;opacity:.18}.line{stroke:#045f5f;stroke-width:10;stroke-linecap:round;fill:none}.thin{stroke:#045f5f;stroke-width:6;stroke-linecap:round;fill:none;opacity:.8}</style>
</defs><rect class="bg" width="1600" height="1600"/><rect width="1600" height="1600" fill="url(#dots)"/><ellipse class="s" cx="800" cy="1370" rx="560" ry="90"/><path class="b" d="M260 840 L800 560 L1340 840 L800 1120 Z"/><circle class="a" cx="800" cy="520" r="145"/><path class="line" d="M720 520l55 55 115-125"/><g><circle class="b" cx="420" cy="900" r="100"/><circle class="b" cx="800" cy="1020" r="100"/><circle class="b" cx="1180" cy="900" r="100"/><path class="thin" d="M370 895c35 45 65 45 100 0M750 1015c35 45 65 45 100 0M1130 895c35 45 65 45 100 0"/></g><g><path class="line" d="M515 890h190M895 1010h190M800 665v250"/><circle class="c" cx="610" cy="730" r="55"/><circle class="c" cx="990" cy="730" r="55"/></g><g><rect class="c" x="240" y="430" width="190" height="105" rx="28"/><rect class="c" x="1170" y="430" width="190" height="105" rx="28"/><path class="thin" d="M285 482h100M1215 482h100"/><path class="thin" d="M335 535v250M1265 535v250"/></g><g><path class="b" d="M610 1180h380l90 120H520z"/><path class="thin" d="M600 1220h400M655 1260h290"/></g><path class="line" d="M455 1110c145 120 545 120 690 0"/></svg>