<svg xmlns="http://www.w3.org/2000/svg" width="1600" height="1600" viewBox="0 0 1600 1600" role="img" aria-label="Transformationstiefe ohne Schrift">
<defs>
<linearGradient id="g" x1="0" y1="0" x2="1" y2="1"><stop stop-color="#00FFFF"/><stop offset="1" stop-color="#7FFFD4"/></linearGradient>
<linearGradient id="d" x1="0" y1="0" x2="0" y2="1"><stop stop-color="#045f5f"/><stop offset="1" stop-color="#033c3c"/></linearGradient>
<pattern id="dots" width="48" height="48" patternUnits="userSpaceOnUse"><circle cx="6" cy="6" r="3" fill="#7FFFD4" opacity=".25"/></pattern>
<style>.bg{fill:#f5f7f4}.a{fill:url(#g);stroke:#045f5f;stroke-width:8;stroke-linejoin:round}.b{fill:#eafff9;stroke:#045f5f;stroke-width:7;stroke-linejoin:round}.c{fill:#7FFFD4;stroke:#045f5f;stroke-width:7}.s{fill:#045f5f;opacity:.18}.line{stroke:#045f5f;stroke-width:10;stroke-linecap:round;fill:none}.thin{stroke:#045f5f;stroke-width:6;stroke-linecap:round;fill:none;opacity:.8}</style>
</defs><rect class="bg" width="1600" height="1600"/><rect width="1600" height="1600" fill="url(#dots)"/><ellipse class="s" cx="800" cy="1370" rx="560" ry="90"/><path class="b" d="M190 940 L800 600 L1410 940 L800 1280 Z"/><g opacity=".55"><rect class="b" x="310" y="850" width="150" height="110" rx="20"/><rect class="b" x="520" y="850" width="150" height="110" rx="20"/><rect class="b" x="730" y="850" width="150" height="110" rx="20"/><rect class="b" x="940" y="850" width="150" height="110" rx="20"/><rect class="b" x="1150" y="850" width="150" height="110" rx="20"/><path class="thin" d="M460 905h60M670 905h60M880 905h60M1090 905h60"/></g><path class="line" d="M310 1085c230 185 750 185 980 0"/><path class="a" d="M545 1090 L800 945 L1055 1090 L800 1235 Z"/><g><path class="c" d="M630 650 L800 550 L970 650 L800 750 Z"/><path class="c" d="M630 790 L800 690 L970 790 L800 890 Z"/><path class="c" d="M630 930 L800 830 L970 930 L800 1030 Z"/></g><g><path class="line" d="M455 670c120-140 570-140 690 0"/><path class="line" d="M455 730c120 140 570 140 690 0"/><circle class="b" cx="455" cy="700" r="58"/><circle class="b" cx="1145" cy="700" r="58"/></g><g><rect class="c" x="290" y="510" width="150" height="95" rx="24"/><rect class="c" x="1160" y="510" width="150" height="95" rx="24"/><path class="thin" d="M365 605v200M1235 605v200"/></g><g><circle class="b" cx="800" cy="350" r="120"/><path class="line" d="M730 350h140M800 280v140"/></g></svg>