<svg xmlns="http://www.w3.org/2000/svg" width="1600" height="1600" viewBox="0 0 1600 1600" role="img" aria-label="Messbarkeit und Beweisführung ohne Schrift">
<defs>
<linearGradient id="g" x1="0" y1="0" x2="1" y2="1"><stop stop-color="#00FFFF"/><stop offset="1" stop-color="#7FFFD4"/></linearGradient>
<linearGradient id="d" x1="0" y1="0" x2="0" y2="1"><stop stop-color="#045f5f"/><stop offset="1" stop-color="#033c3c"/></linearGradient>
<pattern id="dots" width="48" height="48" patternUnits="userSpaceOnUse"><circle cx="6" cy="6" r="3" fill="#7FFFD4" opacity=".25"/></pattern>
<style>.bg{fill:#f5f7f4}.a{fill:url(#g);stroke:#045f5f;stroke-width:8;stroke-linejoin:round}.b{fill:#eafff9;stroke:#045f5f;stroke-width:7;stroke-linejoin:round}.c{fill:#7FFFD4;stroke:#045f5f;stroke-width:7}.s{fill:#045f5f;opacity:.18}.line{stroke:#045f5f;stroke-width:10;stroke-linecap:round;fill:none}.thin{stroke:#045f5f;stroke-width:6;stroke-linecap:round;fill:none;opacity:.8}</style>
</defs><rect class="bg" width="1600" height="1600"/><rect width="1600" height="1600" fill="url(#dots)"/><ellipse class="s" cx="800" cy="1370" rx="560" ry="90"/><path class="b" d="M250 1020 L800 730 L1350 1020 L800 1310 Z"/><g><circle class="b" cx="440" cy="940" r="115"/><circle class="b" cx="800" cy="820" r="115"/><circle class="b" cx="1160" cy="940" r="115"/><path class="line" d="M555 900l130-45M915 855l130 45"/><path class="line" d="M510 1030c160 130 420 130 580 0"/></g><g><rect class="a" x="560" y="430" width="480" height="210" rx="36"/><path class="thin" d="M620 585c65-95 125-40 175-100s105 10 185-45"/><circle class="c" cx="620" cy="585" r="16"/><circle class="c" cx="795" cy="485" r="16"/><circle class="c" cx="980" cy="440" r="16"/></g><g><path class="line" d="M430 1110h740"/><path class="thin" d="M500 1110v-170M800 1110v-290M1100 1110v-170"/></g><g><path class="b" d="M300 540h130l60 70-60 70H300z"/><path class="b" d="M1170 540h130v140h-130l-60-70z"/><path class="thin" d="M490 610h70M1040 610h70"/></g><g><circle class="a" cx="800" cy="270" r="105"/><path class="line" d="M740 270l40 40 85-90"/></g><g><rect class="c" x="350" y="1180" width="135" height="80" rx="20"/><rect class="c" x="610" y="1180" width="135" height="80" rx="20"/><rect class="c" x="870" y="1180" width="135" height="80" rx="20"/><rect class="c" x="1130" y="1180" width="135" height="80" rx="20"/></g></svg>